<svg width="519" height="155" xmlns="http://www.w3.org/2000/svg" xmlns:xlink="http://www.w3.org/1999/xlink" xml:space="preserve" overflow="hidden"><g transform="translate(-61 -168)"><path d="M154.07 0 231.105 0 231.105 154.07 154.07 154.07Z" fill="#EF538A" transform="matrix(1 0 0 1.00532 61 168.055)"/><path d="M231.105 77.0351C273.65 77.0351 308.141 111.524 308.141 154.07L231.105 154.07C231.105 154.07 231.105 77.0351 231.105 77.0351Z" fill="#C2E0F3" transform="matrix(1 0 0 1.00532 61 168.055)"/><path d="M462.211 77.0351C462.211 34.4909 427.722 0 385.176 0L385.176 154.07 462.211 154.07 462.211 77.0351Z" fill="#C7E5F8" transform="matrix(1 0 0 1.00532 61 168.055)"/><path d="M385.176 77.0351 385.176 0C342.631 0 308.141 34.4888 308.141 77.0351L308.141 154.07 385.176 154.07 385.176 77.0351Z" fill="#EF538A" transform="matrix(1 0 0 1.00532 61 168.055)"/><path d="M404.433 96.2928C404.433 106.929 395.811 115.551 385.176 115.551 374.54 115.551 365.918 106.929 365.918 96.2928 365.918 85.6571 374.54 77.0351 385.176 77.0351 395.811 77.0351 404.433 85.6571 404.433 96.2928Z" fill="#1C194F" transform="matrix(1 0 0 1.00532 61 168.055)"/><path d="M77.0351 0 0 154.07 57.7753 154.07 77.0351 115.553 96.2928 154.07 154.07 154.07 77.0351 0Z" fill="#C7E5F8" transform="matrix(1 0 0 1.00532 61 168.055)"/><path d="M481.44 0 518.042 0 518.042 109.968 481.44 109.968Z" fill="#C7E5F8" transform="matrix(1 0 0 1.00532 61 168.055)"/><path d="M519 134.81C519 145.446 510.378 154.068 499.742 154.068 489.107 154.068 480.485 145.446 480.485 134.81 480.485 124.175 489.107 115.553 499.742 115.553 510.378 115.553 519 124.175 519 134.81Z" fill="#EF538A" transform="matrix(1 0 0 1.00532 61 168.055)"/></g></svg>