<svg width="364" height="318" xmlns="http://www.w3.org/2000/svg" xmlns:xlink="http://www.w3.org/1999/xlink" xml:space="preserve" overflow="hidden"><defs><clipPath id="clip0"><rect x="55" y="317" width="364" height="318"/></clipPath></defs><g clip-path="url(#clip0)" transform="translate(-55 -317)"><g><path d="M279.871 315.311 174.931 315.311 174.931 193.459 204.842 228.175 279.871 315.311Z" fill="#EF548A" transform="matrix(1.00473 0 0 1 55 317)"/><path d="M349.831 54.2177C349.831 75.054 335.537 93.0386 314.851 101.404 306.917 104.631 298.007 106.418 288.624 106.418 279.242 106.418 270.331 104.631 262.397 101.404L262.397 1.98694 288.624 1.98694C298.007 1.98694 306.917 3.7729 314.851 7.00012 335.537 15.3658 349.831 33.3506 349.831 54.1866L349.831 54.2177Z" fill="#EF548A" transform="matrix(1.00473 0 0 1 55 317)"/><path d="M262.366 184.748C262.366 202.106 248.071 217.115 227.386 224.102 220.49 226.452 212.84 227.861 204.811 228.175L174.9 193.459 174.9 141.228 201.127 141.228C210.51 141.228 219.42 142.732 227.354 145.426 248.04 152.413 262.334 167.39 262.334 184.748L262.366 184.748Z" fill="#EF548A" transform="matrix(1.00473 0 0 1 55 317)"/><path d="M52.4543 141.228 0.125871 141.228 0.125871 263.079 52.4543 263.079 52.4543 141.228Z" fill="#C1E0F4" transform="matrix(1.00473 0 0 1 55 317)"/><path d="M314.851 101.404 314.851 141.259 262.366 141.259 262.366 101.404C270.3 104.631 279.21 106.418 288.593 106.418 297.975 106.418 306.886 104.631 314.82 101.404L314.851 101.404Z" fill="#C1E0F4" transform="matrix(1.00473 0 0 1 55 317)"/><path d="M139.92 263.079 0.125871 263.079 0.125871 315.311 139.92 315.311 139.92 263.079Z" fill="#C1E0F4" transform="matrix(1.00473 0 0 1 55 317)"/><path d="M262.366 2.11291 201.159 71.6394 139.92 2.11291 262.366 2.11291Z" fill="#C1E0F4" transform="matrix(1.00473 0 0 1 55 317)"/><path d="M139.92 141.134 201.127 71.6073 262.334 141.134 139.92 141.134Z" fill="#1C194F" transform="matrix(1.00473 0 0 1 55 317)"/><path d="M139.92 1.98694 0 1.98694 0 54.2181 139.92 54.2181 139.92 1.98694Z" fill="#1C194F" transform="matrix(1.00473 0 0 1 55 317)"/><path d="M139.92 89.0595 0 89.0595 0 141.29 139.92 141.29 139.92 89.0595Z" fill="#1C194F" transform="matrix(1.00473 0 0 1 55 317)"/><path d="M113.693 141.259C79.8778 141.259 52.4857 168.518 52.4857 202.169 52.4857 235.82 79.8778 263.079 113.693 263.079 147.508 263.079 174.9 235.82 174.9 202.169 174.9 168.518 147.508 141.259 113.693 141.259ZM113.693 228.3C99.2097 228.3 87.4657 216.613 87.4657 202.2 87.4657 187.787 99.2097 176.101 113.693 176.101 128.176 176.101 139.92 187.787 139.92 202.2 139.92 216.613 128.176 228.3 113.693 228.3Z" fill="#1C194F" transform="matrix(1.00473 0 0 1 55 317)"/><path d="M297.346 297.921C307.014 297.921 314.851 290.121 314.851 280.5 314.851 270.879 307.014 263.079 297.346 263.079 287.678 263.079 279.84 270.879 279.84 280.5 279.84 290.121 287.678 297.921 297.346 297.921Z" fill="#EF548A" transform="matrix(1.00473 0 0 1 55 317)"/><path d="M297.346 245.69C307.014 245.69 314.851 237.89 314.851 228.269 314.851 218.648 307.014 210.848 297.346 210.848 287.678 210.848 279.84 218.648 279.84 228.269 279.84 237.89 287.678 245.69 297.346 245.69Z" fill="#C1E0F4" transform="matrix(1.00473 0 0 1 55 317)"/><path d="M297.346 193.49C307.014 193.49 314.851 185.691 314.851 176.069 314.851 166.448 307.014 158.649 297.346 158.649 287.678 158.649 279.84 166.448 279.84 176.069 279.84 185.691 287.678 193.49 297.346 193.49Z" fill="#1C194F" transform="matrix(1.00473 0 0 1 55 317)"/><path d="M412.77 189.855 430.843 189.855C444.633 189.855 454.96 200.069 454.96 214.701 454.96 229.333 444.633 239.548 430.843 239.548L412.77 239.548 412.77 189.855ZM430.496 230.493C439.973 230.493 444.917 224.07 444.917 214.67 444.917 205.27 440.005 198.847 430.496 198.847L422.405 198.847 422.405 230.462 430.496 230.462 430.496 230.493Z" fill="#221F1F" transform="matrix(1.00473 0 0 1 55 317)"/><path d="M476.118 189.855 485.753 189.855 485.753 239.548 476.118 239.548 476.118 189.855Z" fill="#221F1F" transform="matrix(1.00473 0 0 1 55 317)"/><path d="M506.565 227.861 514.373 224.289C515.79 228.143 518.938 231.558 524.007 231.558 527.943 231.558 531.312 229.521 531.312 225.198 531.312 221.563 529.139 219.965 524.07 217.929L520.922 216.738C514.089 214.012 508.485 210.221 508.485 202.67 508.485 194.335 515.443 189.165 523.881 189.165 532.319 189.165 537.672 194.429 539.907 199.662L532.729 203.641C530.619 199.662 527.88 197.688 524.228 197.688 520.575 197.688 517.962 199.442 517.962 202.732 517.962 205.333 519.442 207.338 524.92 209.437L528.289 210.753C537.011 214.263 541.356 218.179 541.356 225.229 541.356 235.318 532.508 240.206 524.133 240.206 515.758 240.206 508.296 235.099 506.565 227.829L506.565 227.861Z" fill="#221F1F" transform="matrix(1.00473 0 0 1 55 317)"/><path d="M561.097 214.701C561.097 199.254 572.841 189.165 586.82 189.165 593.652 189.165 601.807 191.547 607.065 199.944L600.044 204.769C596.801 200.163 591.952 198.252 587.104 198.252 578.256 198.252 570.92 204.612 570.92 214.701 570.92 224.79 578.288 231.151 587.167 231.151 592.173 231.151 596.801 229.271 600.044 224.634L607.065 229.459C601.776 237.856 593.621 240.237 586.82 240.237 572.746 240.237 561.097 230.179 561.097 214.701Z" fill="#221F1F" transform="matrix(1.00473 0 0 1 55 317)"/><path d="M626.145 214.701C626.145 199.442 637.889 189.165 651.806 189.165 665.722 189.165 677.529 199.442 677.529 214.701 677.529 229.96 665.722 240.237 651.806 240.237 637.889 240.237 626.145 229.96 626.145 214.701ZM667.643 214.701C667.643 204.706 660.401 198.252 651.837 198.252 643.273 198.252 636 204.675 636 214.701 636 224.727 643.305 231.151 651.837 231.151 660.37 231.151 667.643 224.727 667.643 214.701Z" fill="#221F1F" transform="matrix(1.00473 0 0 1 55 317)"/><path d="M692.358 189.855 702.78 189.855 716.696 227.579 730.613 189.855 741.034 189.855 721.766 239.548 711.564 239.548 692.358 189.855Z" fill="#221F1F" transform="matrix(1.00473 0 0 1 55 317)"/><path d="M790.088 230.712 790.088 239.516 761.185 239.516 761.185 189.823 789.459 189.823 789.459 198.628 770.819 198.628 770.819 210.158 786.499 210.158 786.499 218.837 770.819 218.837 770.819 230.649 790.088 230.649 790.088 230.712Z" fill="#221F1F" transform="matrix(1.00473 0 0 1 55 317)"/><path d="M828.689 223.098 821.227 223.098 821.227 239.548 811.593 239.548 811.593 189.855 829.098 189.855C839.709 189.855 846.762 196.56 846.762 206.712 846.762 213.855 843.33 219.025 837.536 221.469L849.217 239.516 838.953 239.516 828.689 223.067 828.689 223.098ZM821.227 214.764 828.122 214.764C833.412 214.764 836.97 212.539 836.97 206.712 836.97 200.884 833.38 198.659 828.122 198.659L821.227 198.659 821.227 214.764Z" fill="#221F1F" transform="matrix(1.00473 0 0 1 55 317)"/><path d="M881.049 219.683 862.976 189.886 873.87 189.886 885.835 210.659 897.862 189.886 908.756 189.886 890.683 219.683 890.683 239.548 881.049 239.548 881.049 219.683Z" fill="#221F1F" transform="matrix(1.00473 0 0 1 55 317)"/><path d="M410.661 264.426 420.799 264.426 430.559 297.513 441.233 264.426 448.884 264.426 459.494 297.513 469.349 264.426 479.487 264.426 463.934 314.119 456.346 314.119 445.011 280.656 433.771 314.119 426.12 314.119 410.661 264.426Z" fill="#221F1F" transform="matrix(1.00473 0 0 1 55 317)"/><path d="M495.45 289.272C495.45 274.013 507.194 263.736 521.111 263.736 535.027 263.736 546.834 274.013 546.834 289.272 546.834 304.531 535.027 314.808 521.111 314.808 507.194 314.808 495.45 304.531 495.45 289.272ZM536.948 289.272C536.948 279.277 529.706 272.823 521.142 272.823 512.578 272.823 505.305 279.246 505.305 289.272 505.305 299.298 512.61 305.722 521.142 305.722 529.675 305.722 536.948 299.298 536.948 289.272Z" fill="#221F1F" transform="matrix(1.00473 0 0 1 55 317)"/><path d="M585.781 297.669 578.319 297.669 578.319 314.119 568.685 314.119 568.685 264.426 586.19 264.426C596.801 264.426 603.854 271.131 603.854 281.282 603.854 288.426 600.422 293.596 594.628 296.04L606.31 314.087 596.045 314.087 585.781 297.638 585.781 297.669ZM578.319 289.335 585.214 289.335C590.504 289.335 594.062 287.11 594.062 281.282 594.062 275.455 590.472 273.23 585.214 273.23L578.319 273.23 578.319 289.335Z" fill="#221F1F" transform="matrix(1.00473 0 0 1 55 317)"/><path d="M656.591 305.283 656.591 314.087 627.467 314.087 627.467 264.394 637.102 264.394 637.102 305.252 656.591 305.252 656.591 305.283Z" fill="#221F1F" transform="matrix(1.00473 0 0 1 55 317)"/><path d="M677.749 264.426 695.822 264.426C709.612 264.426 719.939 274.64 719.939 289.272 719.939 303.904 709.612 314.119 695.822 314.119L677.749 314.119 677.749 264.426ZM695.475 305.064C704.952 305.064 709.896 298.64 709.896 289.241 709.896 279.841 704.984 273.418 695.475 273.418L687.384 273.418 687.384 305.032 695.475 305.032 695.475 305.064Z" fill="#221F1F" transform="matrix(1.00473 0 0 1 55 317)"/></g></g></svg>